<?xml version="1.0" encoding="UTF-8"?><svg id="Camada_1" xmlns="http://www.w3.org/2000/svg" xmlns:xlink="http://www.w3.org/1999/xlink" viewBox="0 0 152.03 152.03"><defs><style>.cls-1{fill:url(#Gradiente_sem_nome_16);}.cls-1,.cls-2,.cls-3{stroke-width:0px;}.cls-2{fill:url(#Gradiente_sem_nome_4);}.cls-3{fill:#30253f;}</style><linearGradient id="Gradiente_sem_nome_4" x1="22.26" y1="22.26" x2="129.76" y2="129.76" gradientUnits="userSpaceOnUse"><stop offset="0" stop-color="#58f9a4"/><stop offset="1" stop-color="#d2a5ff"/></linearGradient><linearGradient id="Gradiente_sem_nome_16" x1="114.03" y1="10.17" x2="38" y2="141.85" gradientUnits="userSpaceOnUse"><stop offset="0" stop-color="#fff"/><stop offset="0" stop-color="#fff" stop-opacity=".98"/><stop offset=".09" stop-color="#fff" stop-opacity=".78"/><stop offset=".17" stop-color="#fff" stop-opacity=".59"/><stop offset=".26" stop-color="#fff" stop-opacity=".43"/><stop offset=".35" stop-color="#fff" stop-opacity=".3"/><stop offset=".45" stop-color="#fff" stop-opacity=".19"/><stop offset=".55" stop-color="#fff" stop-opacity=".11"/><stop offset=".67" stop-color="#fff" stop-opacity=".05"/><stop offset=".8" stop-color="#fff" stop-opacity=".01"/><stop offset="1" stop-color="#fff" stop-opacity="0"/></linearGradient></defs><circle class="cls-2" cx="76.01" cy="76.01" r="76.01"/><circle class="cls-1" cx="76.01" cy="76.01" r="76.01"/><path class="cls-3" d="m24.99,100.48v-38.56h4.32l1.37,5.57h-.57v15.81h.57v17.18h-5.69Zm14.05-10.24c-2.5,0-4.68-.6-6.54-1.79-1.86-1.19-3.31-2.87-4.35-5.03-1.04-2.16-1.56-4.68-1.56-7.56s.52-5.46,1.56-7.62c1.04-2.16,2.49-3.85,4.35-5.06,1.86-1.21,4.04-1.82,6.54-1.82s4.82.61,6.74,1.82c1.91,1.21,3.4,2.9,4.46,5.06,1.06,2.16,1.59,4.7,1.59,7.62s-.53,5.4-1.59,7.56c-1.06,2.16-2.55,3.84-4.46,5.03-1.92,1.19-4.16,1.79-6.74,1.79Zm-.85-4.89c2.35,0,4.25-.87,5.69-2.62,1.44-1.74,2.16-4.04,2.16-6.88s-.72-5.2-2.16-6.97c-1.44-1.76-3.34-2.64-5.69-2.64s-4.19.87-5.63,2.62c-1.44,1.74-2.16,4.06-2.16,6.94s.72,5.2,2.16,6.94c1.44,1.74,3.32,2.62,5.63,2.62Z"/><path class="cls-3" d="m66.29,90.24c-1.93,0-3.84-.46-5.72-1.37-1.88-.91-3.42-2.46-4.64-4.66l4.32-2.84c1.06,1.4,2.07,2.42,3.01,3.04.95.63,2.18.94,3.7.94,1.21,0,2.15-.31,2.82-.94.66-.63,1-1.39,1-2.3,0-.61-.16-1.14-.48-1.59-.32-.46-.88-.88-1.68-1.28-.8-.4-1.93-.79-3.41-1.17-2.73-.72-4.83-1.67-6.31-2.84-1.48-1.17-2.22-3.03-2.22-5.57,0-1.52.38-2.9,1.14-4.15.76-1.25,1.86-2.26,3.3-3.01,1.44-.76,3.15-1.14,5.12-1.14,2.35,0,4.36.48,6.03,1.45,1.67.97,2.98,2.11,3.92,3.44l-4.38,3.24c-.53-.68-1.31-1.36-2.33-2.02-1.02-.66-2.31-1-3.87-1-.95,0-1.82.27-2.62.8-.8.53-1.19,1.27-1.19,2.22s.37,1.72,1.11,2.3c.74.59,2.09,1.11,4.07,1.56,3.34.8,5.71,1.83,7.11,3.1,1.4,1.27,2.1,2.95,2.1,5.03,0,1.82-.46,3.38-1.39,4.69-.93,1.31-2.14,2.31-3.64,3.01-1.5.7-3.12,1.05-4.86,1.05Z"/><path class="cls-3" d="m79.14,89.67l13.76-38.73h8.7l13.31,38.73h-7.51l-11.21-33.62h2.16l-11.72,33.62h-7.51Zm8.08-14.73h19.11v6.94h-19.11v-6.94Z"/><path class="cls-3" d="m127.03,89.67h-7.45v-38.73h7.45v38.73Z"/></svg>