<?xml version="1.0" encoding="UTF-8"?><svg id="Camada_1" xmlns="http://www.w3.org/2000/svg" viewBox="0 0 70.71 70.71"><defs><style>.cls-1{stroke-width:0px;}.cls-1,.cls-2,.cls-3,.cls-4{fill:none;}.cls-2{stroke:#78ffb5;}.cls-2,.cls-3,.cls-4{stroke-miterlimit:10;stroke-width:3px;}.cls-3{stroke:#d2a5ff;}.cls-4{stroke:#a5d2da;}</style></defs><path class="cls-3" d="m25.09,33.64c5.55-2.94,6.75-11.11,16.52-8.03,3.04.96,6.1,6.09,7.23,10.47s.36,8.03-4.28,6.02c-3.37-1.46-6.52-.11-9.61,1.21s-6.13,2.6-9.26.99c-5-2.57-6.14-7.71-.59-10.66Z"/><path class="cls-4" d="m47.74,21.94c5.85.51,9.31,7.66,8.67,15.56-.41,5.05-2.62,9.39-7.59,11.95-8.17,4.2-12.12-7.26-17.25,1.77-3.85,6.78-9.19,5.2-13.37.27-4.8-5.67-6.49-14.37-.8-18.82,7.9-6.17,6.06-16.49,12.7-17.37s10.58,6.03,17.65,6.65Z"/><path class="cls-2" d="m27.47,4.01c11.32,0,16.48,14.27,26.41,14.27,13.05,0,16.66,21.06-.8,38.52-11.81,11.81-18.08-14.61-24.89,2.32-4.87,12.1-12.55,8.03-17.48-.46s-7.12-21.39-1-26.98c12.24-11.17,7.26-27.69,17.77-27.68Z"/><rect class="cls-1" width="70.71" height="70.71"/></svg>