<?xml version="1.0" standalone="no"?>
<!DOCTYPE svg PUBLIC "-//W3C//DTD SVG 20010904//EN"
 "http://www.w3.org/TR/2001/REC-SVG-20010904/DTD/svg10.dtd">
<svg version="1.0" xmlns="http://www.w3.org/2000/svg"
 width="700.000000pt" height="700.000000pt" viewBox="0 0 700.000000 700.000000"
 preserveAspectRatio="xMidYMid meet">
<metadata>
Created by potrace 1.14, written by Peter Selinger 2001-2017
</metadata>
<g transform="translate(0.000000,700.000000) scale(0.100000,-0.100000)"
fill="#000000" stroke="none">
<path d="M3269 6996 c-2 -2 -41 -6 -86 -10 -82 -6 -352 -44 -364 -52 -4 -2
-24 -6 -45 -9 -106 -16 -485 -131 -591 -180 -17 -8 -34 -15 -37 -15 -14 0
-321 -154 -402 -201 -77 -45 -277 -175 -308 -200 -6 -5 -49 -39 -96 -76 -443
-347 -813 -820 -1030 -1313 -23 -52 -46 -104 -51 -115 -72 -157 -186 -560
-213 -760 -3 -17 -7 -46 -11 -66 -6 -40 -10 -75 -22 -199 -15 -163 -8 -592 12
-711 2 -13 6 -46 9 -74 9 -78 22 -152 51 -285 21 -96 91 -339 114 -395 5 -11
26 -65 46 -120 53 -138 160 -358 239 -489 36 -60 66 -111 66 -113 0 -2 5 -9
10 -16 6 -7 40 -55 76 -107 192 -275 415 -510 707 -746 105 -85 307 -219 442
-294 265 -147 578 -274 830 -336 47 -11 154 -37 170 -40 61 -12 185 -34 220
-39 22 -2 56 -7 75 -10 150 -21 536 -27 720 -12 692 58 1373 335 1913 776 137
112 344 314 432 421 21 25 41 47 44 50 32 22 235 310 318 450 83 140 143 258
231 460 56 128 150 425 178 565 14 68 35 185 40 215 3 19 7 42 9 50 2 8 7 47
11 85 3 39 8 84 11 100 2 17 5 138 7 270 4 242 -2 348 -29 540 -1 11 -6 43
-10 70 -12 92 -65 319 -106 453 -296 985 -1028 1800 -1982 2206 -211 90 -486
175 -677 209 -49 9 -105 20 -125 24 -11 2 -54 8 -95 13 -41 5 -93 12 -115 15
-45 7 -580 16 -586 11z"/>
</g>
</svg>
